<svg xmlns="http://www.w3.org/2000/svg" xmlns:xlink="http://www.w3.org/1999/xlink" width="278" height="130" viewBox="0 0 278 130">
  <defs>
    <style>
      .cls-1 {
        clip-path: url(#clip-butterLOGO);
      }

      .cls-2 {
        fill: #848484;
      }
    </style>
    <clipPath id="clip-butterLOGO">
      <rect width="278" height="130"/>
    </clipPath>
  </defs>
  <g id="butterLOGO" class="cls-1">
    <g id="txt" transform="translate(-380.977 -326.983)">
      <path id="Path_127" data-name="Path 127" class="cls-2" d="M504.065,392.787c-2.575-1.6-6.444-3.665-9.6-5.357a1.692,1.692,0,0,1-.57-2.484l3.04-4.209a1.686,1.686,0,0,1,2.075-.551c3.1,1.425,7.143,3.323,9.974,4.843a1.69,1.69,0,0,1,.6,2.433l-3.23,4.824A1.685,1.685,0,0,1,504.065,392.787ZM493.9,413.518c2.461-3.908,5.628-9.356,8.38-14.852a1.691,1.691,0,0,1,2.6-.533l4.451,3.729a1.693,1.693,0,0,1,.456,2.006c-2.351,5.114-4.959,10.3-7.676,15.241a1.7,1.7,0,0,1-2.486.544l-5.287-3.871A1.689,1.689,0,0,1,493.9,413.518Zm57.252-37.459v43.293a1.7,1.7,0,0,1-1.7,1.7h-5.692a1.694,1.694,0,0,1-1.694-1.7h0a1.694,1.694,0,0,0-1.695-1.694H523.49a1.694,1.694,0,0,0-1.694,1.694v.448a1.7,1.7,0,0,1-1.695,1.695h-5.308a1.7,1.7,0,0,1-1.7-1.695V376.058a1.7,1.7,0,0,1,1.7-1.695h10.871a1.694,1.694,0,0,0,1.695-1.694v-9.465a1.694,1.694,0,0,1,1.694-1.7h5.692a1.694,1.694,0,0,1,1.694,1.7v9.465a1.694,1.694,0,0,0,1.7,1.694h11.319A1.7,1.7,0,0,1,551.148,376.058ZM521.8,384.947v4.8a1.694,1.694,0,0,0,1.694,1.694h2.174a1.694,1.694,0,0,0,1.695-1.694v-4.8a1.694,1.694,0,0,0-1.695-1.694H523.49A1.694,1.694,0,0,0,521.8,384.947Zm1.694,23.821h2.174a1.7,1.7,0,0,0,1.695-1.695v-5.052a1.7,1.7,0,0,0-1.695-1.7H523.49a1.7,1.7,0,0,0-1.694,1.7v5.052A1.7,1.7,0,0,0,523.49,408.769Zm12.949-23.821v4.8a1.694,1.694,0,0,0,1.7,1.694h2.238a1.694,1.694,0,0,0,1.695-1.694v-4.8a1.694,1.694,0,0,0-1.695-1.694h-2.238A1.694,1.694,0,0,0,536.439,384.947Zm5.628,22.126v-5.052a1.7,1.7,0,0,0-1.695-1.7h-2.238a1.7,1.7,0,0,0-1.7,1.7v5.052a1.7,1.7,0,0,0,1.7,1.695h2.238A1.7,1.7,0,0,0,542.067,407.074Z" transform="translate(6.35 0.184)"/>
      <g id="Group_637" data-name="Group 637" transform="translate(562.203 361.601)">
        <path id="Path_128" data-name="Path 128" class="cls-2" d="M573.4,364.408l-7.019-2.909a.984.984,0,0,0-1.177.338,57.046,57.046,0,0,1-13.088,12.327.977.977,0,0,0-.242,1.421,60.948,60.948,0,0,1,3.913,5.907.98.98,0,0,0,1.42.313,89.05,89.05,0,0,0,16.6-15.873A.987.987,0,0,0,573.4,364.408Z" transform="translate(-550.987 -361.424)"/>
        <path id="Path_129" data-name="Path 129" class="cls-2" d="M577.5,373.286h23.978a.756.756,0,0,1,.346.519l.4,1.385c.156.648,1.441.658,1.609.013,0,0,.169-1.618.569-1.917.306-.228.7.277.761.654l.4,2.608c.156.648,1.441.659,1.609.013l.4-3.191c.009-.064.014-.129.018-.193l.289-5.095a3.62,3.62,0,0,0-3.62-3.621H577.5a.77.77,0,0,0-.77.769v7.286A.77.77,0,0,0,577.5,373.286Z" transform="translate(-548.888 -361.169)"/>
        <path id="Path_130" data-name="Path 130" class="cls-2" d="M567.654,374.9a63.611,63.611,0,0,1-16.2,17.759.979.979,0,0,0-.165,1.447,79.157,79.157,0,0,1,4.927,6.416.983.983,0,0,0,1.447.2c.527-.454,1.057-.932,1.592-1.421a.989.989,0,0,1,1.657.726v19.852a.989.989,0,0,0,.988.988h7.359a.989.989,0,0,0,.988-.988v-32.25a.977.977,0,0,1,.206-.6,89.8,89.8,0,0,0,5.849-8.449.989.989,0,0,0-.5-1.429l-6.946-2.667A.979.979,0,0,0,567.654,374.9Z" transform="translate(-551.039 -360.336)"/>
        <path id="Path_131" data-name="Path 131" class="cls-2" d="M574.248,381.853V388.7a.988.988,0,0,0,.988.988h15.544a.99.99,0,0,1,.99.988v18.964c0,.9-.385,1.151-1.535,1.151-.97,0-4.114,0-6.953-.115a.989.989,0,0,0-.955,1.355,39.213,39.213,0,0,1,2.037,7.277.99.99,0,0,0,.984.818c5.024-.016,9.016-.2,11.92-1.533,3.2-1.408,4.029-3.964,4.029-8.7v-19.22a.989.989,0,0,1,.988-.988h6.4a.988.988,0,0,0,.988-.988v-6.847a.988.988,0,0,0-.988-.988h-33.45A.988.988,0,0,0,574.248,381.853Z" transform="translate(-549.095 -359.795)"/>
      </g>
      <path id="Path_132" data-name="Path 132" class="cls-2" d="M484.7,381.457c1.088-4.777,2.158-10.029,3.013-14.848a1.038,1.038,0,0,0-1.029-1.216H459.938a1.042,1.042,0,0,0-1.041,1.042v5.971a1.04,1.04,0,0,1-.979,1.039l-.027,0a1.042,1.042,0,0,1-1.1-1.039v-1.177a1.042,1.042,0,0,0-1.041-1.043h-5.463a1.042,1.042,0,0,0-1.042,1.043v1.683a1.041,1.041,0,0,1-.982,1.039h0a1.038,1.038,0,0,1-1.087-1.176c.434-3.3.746-6.578.972-9.708a1.04,1.04,0,0,0-1-1.11l-5.765-.234a1.034,1.034,0,0,0-1.078.978c-.19,3.46-.514,7.132-.932,10.819a1.047,1.047,0,0,1-.995.924l-2.673.109a1.042,1.042,0,0,0-.994,1.144l.621,6.208a1.041,1.041,0,0,0,1.11.935l.431-.029a1.044,1.044,0,0,1,1.1,1.207c-.745,4.578-1.578,8.823-2.415,12.308a1.011,1.011,0,0,0,.235.928c2.068,2.288,4.46,4.855,6.783,7.4a1.046,1.046,0,0,1,.125,1.249,37.725,37.725,0,0,1-7.312,8.63,4.826,4.826,0,0,1-3.648,1.187c-2.576-.256-6.511-2.019-8.523-9.835a1.791,1.791,0,0,0-3.442-.122l-.792,2.457a21.015,21.015,0,0,0-1.209,5.8c-.222,6.006,2.869,9.9,9.681,10.715,3.165.376,9.053-.456,12.514-3.52a42.907,42.907,0,0,0,7.789-8.554,1.046,1.046,0,0,1,1.676-.072c.535.661.943,1.181,1.346,1.744a1.044,1.044,0,0,0,1.68.012l3.9-5.177a1.046,1.046,0,0,0-.012-1.27c-.942-1.212-1.879-2.2-3.338-3.79a1.045,1.045,0,0,1-.2-1.077,64.252,64.252,0,0,0,3.891-20.611,1.033,1.033,0,0,1,.95-.993l.427-.036a1.04,1.04,0,0,0,.955-1.037v-5.547a1.042,1.042,0,0,1,1.043-1.041h2.256a1.048,1.048,0,0,1,1.043,1.057c-.138,16.592-.7,30.38-8.278,39.771a1.036,1.036,0,0,0,.169,1.493,26.9,26.9,0,0,1,4.925,4.928,1.042,1.042,0,0,0,1.64.056c8.948-11.06,10.275-27.424,10.555-46.276a1.045,1.045,0,0,1,1.039-1.03h2.974A1.044,1.044,0,0,1,477.417,375c-.953,5.3-2.112,10.612-3.209,14.806a1.039,1.039,0,0,0,1.009,1.3h9.13a1.049,1.049,0,0,1,1.04,1.1c-.57,12.639-1.329,18-2.51,19.366a2.842,2.842,0,0,1-2.366.959c-1.079,0-2.874,0-4.894-.116a1.036,1.036,0,0,0-1,1.473,21.951,21.951,0,0,1,1.858,6.51,1.029,1.029,0,0,0,1.012.91,39.383,39.383,0,0,0,7.246-.336,7.847,7.847,0,0,0,5.628-3.325c2.238-2.815,3.005-11,3.837-31.271.037-.626.074-1.743.1-2.575a1.041,1.041,0,0,0-1.041-1.071h-7.534A1.036,1.036,0,0,1,484.7,381.457Zm-38.148,15.975-2.813-2.942c.7-3.773,1.47-7.929,2.11-12.278l3.325-.192A56.034,56.034,0,0,1,446.554,397.432Z" transform="translate(0 0.202)"/>
      <path id="Path_133" data-name="Path 133" class="cls-2" d="M501.255,359.347a.144.144,0,0,0-.211.191c.984,1.393,2.319,3.777.8,4.784-2.44,1.619-5.492,3.942-5.492,3.942s-2.3,2.365.342,3.891a57.048,57.048,0,0,0,5.146,2.511,4.746,4.746,0,0,0,3.468.132c.9-.312,1.91-.673,2.429-.889.856-.355,3.363-1.654,3.363-1.654,1.416-.771,2.455-2.656-.369-4.792C509.252,366.34,501.255,359.347,501.255,359.347Z" transform="translate(6.505)"/>
    </g>
  </g>
</svg>
