<svg xmlns="http://www.w3.org/2000/svg" xmlns:xlink="http://www.w3.org/1999/xlink" width="523" height="865" viewBox="0 0 523 865">
  <defs>
    <style>
      .cls-1 {
        clip-path: url(#clip-butterbike);
      }

      .cls-2 {
        fill: #dcf1db;
      }

      .cls-3 {
        fill: #848484;
      }

      .cls-11, .cls-12, .cls-4, .cls-8 {
        fill: none;
      }

      .cls-4 {
        stroke: #b4b4b4;
        stroke-width: 7px;
      }

      .cls-11, .cls-12, .cls-4, .cls-8, .cls-9 {
        stroke-linecap: round;
      }

      .cls-5, .cls-9 {
        fill: #f7d21e;
      }

      .cls-6 {
        fill: #fff57d;
      }

      .cls-7 {
        fill: #f4da17;
      }

      .cls-12, .cls-8 {
        stroke: #fff;
      }

      .cls-11, .cls-8, .cls-9 {
        stroke-miterlimit: 10;
      }

      .cls-8, .cls-9 {
        stroke-width: 3px;
      }

      .cls-9 {
        stroke: #fff57d;
      }

      .cls-10 {
        fill: #482c00;
      }

      .cls-11 {
        stroke: #482c00;
      }

      .cls-12 {
        stroke-width: 6px;
      }
    </style>
    <clipPath id="clip-butterbike">
      <rect width="523" height="865"/>
    </clipPath>
  </defs>
  <g id="butterbike" class="cls-1">
    <g id="_0" data-name="0" transform="translate(74)">
      <rect id="Rectangle_340" data-name="Rectangle 340" class="cls-2" width="375" height="812"/>
      <ellipse id="foot" class="cls-3" cx="249.835" cy="103.231" rx="249.835" ry="103.231" transform="translate(-62.613 646.84)"/>
      <path id="foot_line" class="cls-4" d="M-27.552-775.348s15.815-7.722,48.8-14.215" transform="translate(72 1475)"/>
      <path id="foot_line2" class="cls-4" d="M91.849-797.549c7.364-.316,15.382-.509,23.783-.537,97.287-.327,148.719,22.737,148.719,22.737" transform="translate(72 1475)"/>
      <g id="one" transform="translate(480.656 976.304)">
        <path id="Path_117" data-name="Path 117" class="cls-5" d="M-390.043-584.777c-4.419,9.964-37.043,68.059-40.525,84.061a4.308,4.308,0,0,0,2.791,4.794c4.859,2.06,20.13,10.4,37.907,14.379,35.672,7.991,31.747,5.677,31.747,5.677l1.5-15.384a4.616,4.616,0,0,0-4.264-4.8c-12.593-1.727-38.141-13.493-38.917-15.376-.894-2.365,3.245-10.643,3.764-11.668.039-.079.076-.155.11-.234l29.041-56.64a4.233,4.233,0,0,1,.533-.909l6.8-8.911a4.129,4.129,0,0,0-1.123-6.044l-8.615-5.83a5.539,5.539,0,0,0-7.173.88l-.3.361a3.533,3.533,0,0,1-5.649-.508h0a3.254,3.254,0,0,0-2.319-1.625c-2.133-.4-1.5,1.606-1.941,3.677-.505,2.4-.164,4.007-.926,8.872C-387.743-589.111-389.671-585.615-390.043-584.777Z" transform="translate(0 44.996)"/>
        <path id="Path_118" data-name="Path 118" class="cls-5" d="M-220.816-620.4c0-.113-.04-.212-.048-.324a7.915,7.915,0,0,0-.127-.872c-.011-.042-.017-.09-.031-.133-.626-3.369-3.222-5.576-7.528-5.576H-339.609c-22.091,0-48.073,4.038-60.827,27.588L-413.5-575.6c-4.269,7.887-1.735,14.278,5.66,14.278h109.821L-354.463-369.9a4.511,4.511,0,0,0-.192,1.383,33.861,33.861,0,0,0,.646,5.773l-52.091-8.959,4.1,16.42s-8.2,10.951-5.562,12.909c9.944,7.384,13.335,18.914,14.173,31.053,1.058,15.359,5.993,26.482,3.262,32.839s-5.542,6.885-10.759,11.651-8.392,5.827-7.861,11.654,3.014,14.3,7.861,14.3,19.159-1.061,29.481-6.885,5.028-12.184,3.97-15.892,9.422-52.21,9.422-52.21l18.629-25.09a33.646,33.646,0,0,0,18.524,5.533h18.922L-295.5-310s5.982,47.67,4.924,51.378-6.357,10.062,3.967,15.889,24.633,6.885,29.481,6.885,7.334-8.473,7.864-14.3-2.65-6.885-7.864-11.654-8.025-5.3-10.756-11.651,2.2-17.48,3.259-32.839c.7-10.186,17.565-25.861,28.855-35.012a37.594,37.594,0,0,0,5.488-4.286c.079-.059.175-.135.251-.192a4.084,4.084,0,0,0,.457-.451l.195-.2a3.531,3.531,0,0,0,.26-.285,37.1,37.1,0,0,0,10.567-25.96Z" transform="translate(27.479 0)"/>
        <path id="Path_119" data-name="Path 119" class="cls-6" d="M-309.312-346.611h-70.449a34.289,34.289,0,0,1-34.309-34.272V-608.129h118.037a20.1,20.1,0,0,1,20.113,20.093v115.23l3.4,21.143a149.592,149.592,0,0,1,.418,44.772l-3.818,26.922A33.375,33.375,0,0,1-309.312-346.611Z" transform="translate(30.215 34.931)"/>
        <path id="Path_120" data-name="Path 120" class="cls-7" d="M-310.814-346.611h-67.365A37.393,37.393,0,0,1-415.572-384V-605.045a3.082,3.082,0,0,1,3.081-3.084h111.875a23.2,23.2,0,0,1,23.194,23.2v111.88a3.142,3.142,0,0,0,.039.488l3.29,20.44a152.637,152.637,0,0,1,.423,45.692l-3.753,26.462A33.375,33.375,0,0,1-310.814-346.611Z" transform="translate(27.479 34.931)"/>
        <path id="Path_121" data-name="Path 121" class="cls-8" d="M-376.547-588.713s-1.467,17.145,2.779,22.853c1.817,2.444,7.534,3.857,11.637-.4,3.931-4.08.195-35.686.195-35.686" transform="translate(98.125 46.193)"/>
        <path id="Path_122" data-name="Path 122" class="cls-9" d="M-338-570.64s24.315,39.4,25.308,56.877c5.959,9.932,27.41,33.369,26.216,46.677s-4.766,17.28-9.137,19.066-16.287,2.384-17.675.993c-.6-3.375-4.966-21.451-4.966-21.451s-.728,4.371-2.582,6.62-4.238,4.106-7.548,4.106-4.633-2.647-2.517-7.81,2.384-23.175,1.721-28.206-19.777-61.014-32.622-75.447" transform="translate(130.033 90.602)"/>
        <g id="Group_636" data-name="Group 636" transform="translate(-352.059 -514.548)">
          <path id="Path_123" data-name="Path 123" class="cls-10" d="M-393.474-581.568a4.149,4.149,0,0,0-1.67-3.634A3.9,3.9,0,0,0-397.616-587a4.435,4.435,0,0,0-5.068,3.671,4.886,4.886,0,0,0,.609,3.648,4.151,4.151,0,0,0,1.8,2.283,4.16,4.16,0,0,0,1.907,1,4.175,4.175,0,0,0,4.963-3.189A4.167,4.167,0,0,0-393.474-581.568Z" transform="translate(402.802 587.818)"/>
          <path id="Path_124" data-name="Path 124" class="cls-10" d="M-378.123-584.1a3.284,3.284,0,0,0-.942-2.317,3.765,3.765,0,0,0-5.3.359,4.109,4.109,0,0,0-1.174,2.977,3.478,3.478,0,0,0,.288,2.4,3.472,3.472,0,0,0,.872,1.552,3.542,3.542,0,0,0,5.006-.059,3.477,3.477,0,0,0,.827-1.529A3.5,3.5,0,0,0-378.123-584.1Z" transform="translate(434.083 587.344)"/>
          <g id="Group_635" data-name="Group 635" transform="translate(16.23 37.599)">
            <path id="Path_125" data-name="Path 125" class="cls-11" d="M-397.05-573.9s4.007,7.018,10.81,7.018c6.654,0,11.7-3.575,13.158-7.018" transform="translate(397.05 574.234)"/>
            <path id="Path_126" data-name="Path 126" class="cls-11" d="M-396.909-574.019s4.106,6.888,10.195,6.888,11.572-3.442,13.028-6.888" transform="translate(397.307 574.019)"/>
          </g>
        </g>
      </g>
      <path id="Path_135" data-name="Path 135" class="cls-7" d="M0,0H375s22.482,75.844,4.423,102.387c-4.1,6.025-5.4,8.884-14.091,8.977-13.746-.019-23.552-41.383-42.245-40.939C298.9,71,295.9,144.251,268.507,144.511s-35.755-71.7-65.791-71.593c-7.735-.368-13.235-.962-23.867,1.074-11.008,2.108-31.124,12.8-48.187,12.929-32.625.244-34.818-25.558-72.78-25.454S17.369,78.673,0,70.424,0,0,0,0Z"/>
      <g id="txt" transform="translate(-375.977 -153.983)">
        <path id="Path_127" data-name="Path 127" class="cls-3" d="M508.295,405.4c-3.613-2.245-9.042-5.143-13.469-7.517a2.374,2.374,0,0,1-.8-3.485l4.266-5.906a2.365,2.365,0,0,1,2.912-.772c4.348,2,10.023,4.662,14,6.8a2.372,2.372,0,0,1,.842,3.414l-4.532,6.769A2.365,2.365,0,0,1,508.295,405.4Zm-14.269,29.088c3.453-5.484,7.9-13.128,11.758-20.84a2.373,2.373,0,0,1,3.645-.748l6.246,5.233a2.376,2.376,0,0,1,.64,2.815c-3.3,7.176-6.959,14.447-10.771,21.386a2.378,2.378,0,0,1-3.488.763l-7.418-5.432A2.369,2.369,0,0,1,494.026,434.486Zm80.335-52.562v60.748a2.378,2.378,0,0,1-2.378,2.378H564a2.378,2.378,0,0,1-2.377-2.378h0a2.378,2.378,0,0,0-2.378-2.377H535.552a2.377,2.377,0,0,0-2.377,2.377v.628a2.378,2.378,0,0,1-2.378,2.378h-7.448a2.378,2.378,0,0,1-2.378-2.378V381.924a2.378,2.378,0,0,1,2.378-2.378H538.6a2.378,2.378,0,0,0,2.378-2.377v-13.28a2.378,2.378,0,0,1,2.377-2.378h7.987a2.378,2.378,0,0,1,2.377,2.378v13.28a2.378,2.378,0,0,0,2.378,2.377h15.882A2.378,2.378,0,0,1,574.361,381.924ZM533.175,394.4v6.731a2.377,2.377,0,0,0,2.377,2.377H538.6a2.378,2.378,0,0,0,2.378-2.377V394.4a2.378,2.378,0,0,0-2.378-2.377h-3.051A2.377,2.377,0,0,0,533.175,394.4Zm2.377,33.425H538.6a2.378,2.378,0,0,0,2.378-2.378v-7.09a2.378,2.378,0,0,0-2.378-2.378h-3.051a2.378,2.378,0,0,0-2.377,2.378v7.09A2.378,2.378,0,0,0,535.552,427.822ZM553.721,394.4v6.731A2.378,2.378,0,0,0,556.1,403.5h3.14a2.378,2.378,0,0,0,2.378-2.377V394.4a2.378,2.378,0,0,0-2.378-2.377H556.1A2.378,2.378,0,0,0,553.721,394.4Zm7.9,31.047v-7.09a2.378,2.378,0,0,0-2.378-2.378H556.1a2.378,2.378,0,0,0-2.378,2.378v7.09a2.378,2.378,0,0,0,2.378,2.378h3.14A2.378,2.378,0,0,0,561.618,425.444Z" transform="translate(39.477 1.145)"/>
        <g id="Group_637" data-name="Group 637" transform="translate(620.44 362.524)">
          <path id="Path_128" data-name="Path 128" class="cls-3" d="M582.16,365.611l-9.85-4.082a1.38,1.38,0,0,0-1.652.474A80.047,80.047,0,0,1,552.3,379.3a1.371,1.371,0,0,0-.339,1.994,85.528,85.528,0,0,1,5.491,8.288,1.376,1.376,0,0,0,1.992.439,124.952,124.952,0,0,0,23.287-22.272A1.385,1.385,0,0,0,582.16,365.611Z" transform="translate(-550.713 -361.424)"/>
          <path id="Path_129" data-name="Path 129" class="cls-3" d="M577.806,376.844h33.646a1.061,1.061,0,0,1,.485.728l.556,1.943c.219.909,2.023.923,2.258.018,0,0,.237-2.27.8-2.69.429-.319.989.389,1.068.917l.557,3.659c.219.909,2.023.925,2.258.018l.561-4.477c.012-.09.02-.181.026-.271l.406-7.149a5.08,5.08,0,0,0-5.079-5.081h-37.54a1.08,1.08,0,0,0-1.08,1.08v10.224A1.08,1.08,0,0,0,577.806,376.844Z" transform="translate(-537.664 -359.842)"/>
          <path id="Path_130" data-name="Path 130" class="cls-3" d="M574.353,375.094a89.26,89.26,0,0,1-22.736,24.918,1.373,1.373,0,0,0-.231,2.03,111.065,111.065,0,0,1,6.913,9,1.379,1.379,0,0,0,2.03.274c.739-.637,1.483-1.308,2.234-1.994a1.387,1.387,0,0,1,2.325,1.019V438.2a1.387,1.387,0,0,0,1.387,1.387H576.6a1.387,1.387,0,0,0,1.387-1.387V392.949a1.371,1.371,0,0,1,.289-.841,126,126,0,0,0,8.207-11.856,1.388,1.388,0,0,0-.7-2.006l-9.746-3.742A1.374,1.374,0,0,0,574.353,375.094Z" transform="translate(-551.039 -354.66)"/>
          <path id="Path_131" data-name="Path 131" class="cls-3" d="M574.248,382.252v9.608a1.386,1.386,0,0,0,1.387,1.387h21.812a1.389,1.389,0,0,1,1.388,1.387v26.609c0,1.256-.54,1.615-2.153,1.615-1.361,0-5.773,0-9.757-.161a1.387,1.387,0,0,0-1.34,1.9,55.027,55.027,0,0,1,2.859,10.212,1.389,1.389,0,0,0,1.381,1.148c7.05-.023,12.651-.284,16.726-2.152,4.486-1.975,5.654-5.563,5.654-12.2V394.634a1.387,1.387,0,0,1,1.387-1.387h8.98a1.386,1.386,0,0,0,1.387-1.387v-9.608a1.386,1.386,0,0,0-1.387-1.387H575.635A1.386,1.386,0,0,0,574.248,382.252Z" transform="translate(-538.954 -351.301)"/>
        </g>
        <path id="Path_132" data-name="Path 132" class="cls-3" d="M511.693,389.413c1.527-6.7,3.028-14.073,4.228-20.834a1.456,1.456,0,0,0-1.443-1.706H476.943a1.462,1.462,0,0,0-1.461,1.461v8.379a1.46,1.46,0,0,1-1.373,1.458l-.038,0a1.462,1.462,0,0,1-1.55-1.458v-1.651a1.462,1.462,0,0,0-1.461-1.463h-7.666a1.462,1.462,0,0,0-1.461,1.463v2.362a1.461,1.461,0,0,1-1.378,1.458h0a1.457,1.457,0,0,1-1.525-1.65c.608-4.628,1.046-9.231,1.364-13.623a1.459,1.459,0,0,0-1.405-1.557l-8.089-.328a1.451,1.451,0,0,0-1.513,1.372c-.266,4.856-.721,10.008-1.308,15.181a1.469,1.469,0,0,1-1.4,1.3l-3.75.154a1.462,1.462,0,0,0-1.395,1.606l.871,8.711a1.461,1.461,0,0,0,1.557,1.312l.605-.041a1.465,1.465,0,0,1,1.547,1.694c-1.045,6.423-2.214,12.38-3.388,17.271a1.418,1.418,0,0,0,.33,1.3c2.9,3.21,6.258,6.813,9.518,10.379a1.468,1.468,0,0,1,.175,1.752,52.935,52.935,0,0,1-10.26,12.109,6.772,6.772,0,0,1-5.119,1.665c-3.615-.359-9.136-2.833-11.959-13.8a2.514,2.514,0,0,0-4.83-.172l-1.112,3.447a29.486,29.486,0,0,0-1.7,8.145c-.312,8.428,4.025,13.9,13.585,15.035,4.44.528,12.7-.64,17.56-4.939a60.208,60.208,0,0,0,10.929-12,1.468,1.468,0,0,1,2.351-.1c.751.928,1.323,1.658,1.889,2.447a1.465,1.465,0,0,0,2.357.017l5.465-7.264a1.467,1.467,0,0,0-.017-1.782c-1.322-1.7-2.637-3.084-4.684-5.318a1.467,1.467,0,0,1-.284-1.512c3.852-10,5.122-20.194,5.459-28.921a1.45,1.45,0,0,1,1.334-1.393l.6-.05a1.459,1.459,0,0,0,1.34-1.455v-7.783a1.462,1.462,0,0,1,1.463-1.461h3.166a1.471,1.471,0,0,1,1.463,1.483c-.193,23.282-.985,42.629-11.615,55.806a1.454,1.454,0,0,0,.237,2.1,37.75,37.75,0,0,1,6.91,6.915,1.462,1.462,0,0,0,2.3.079c12.555-15.519,14.418-38.48,14.81-64.933a1.466,1.466,0,0,1,1.458-1.445h4.173a1.465,1.465,0,0,1,1.443,1.72c-1.337,7.442-2.964,14.891-4.5,20.776a1.457,1.457,0,0,0,1.416,1.822h12.811a1.472,1.472,0,0,1,1.46,1.54c-.8,17.735-1.864,25.253-3.522,27.174a3.988,3.988,0,0,1-3.32,1.346c-1.515,0-4.033,0-6.868-.163a1.453,1.453,0,0,0-1.405,2.067,30.8,30.8,0,0,1,2.607,9.135,1.444,1.444,0,0,0,1.42,1.277,55.26,55.26,0,0,0,10.167-.471,11.011,11.011,0,0,0,7.9-4.666c3.14-3.949,4.217-15.435,5.383-43.879.052-.879.1-2.445.138-3.613a1.461,1.461,0,0,0-1.461-1.5H513.118A1.454,1.454,0,0,1,511.693,389.413Zm-53.529,22.415-3.948-4.129c.985-5.294,2.062-11.126,2.961-17.228l4.666-.269A78.628,78.628,0,0,1,458.164,411.828Z" transform="translate(0 1.257)"/>
        <path id="Path_133" data-name="Path 133" class="cls-3" d="M503.605,359.361a.2.2,0,0,0-.3.268c1.381,1.954,3.254,5.3,1.127,6.712-3.423,2.272-7.707,5.531-7.707,5.531s-3.232,3.318.48,5.459a80.073,80.073,0,0,0,7.22,3.523,6.659,6.659,0,0,0,4.866.186c1.261-.438,2.68-.944,3.408-1.247,1.2-.5,4.719-2.321,4.719-2.321,1.987-1.081,3.444-3.727-.517-6.725C514.827,369.174,503.605,359.361,503.605,359.361Z" transform="translate(40.441)"/>
      </g>
      <path id="line2" class="cls-12" d="M148.419-1325.993s21.725,46.374,39.1,51.027,28.148-14.491,28.148-14.491" transform="translate(73 1438)"/>
      <path id="line1" class="cls-12" d="M-64.283-1347.436s22.146-12.718,36.716-12.542a56.009,56.009,0,0,1,26.243,7.511" transform="translate(77 1440)"/>
    </g>
  </g>
</svg>
